<?xml version="1.0" encoding="UTF-8" standalone="no"?>
<!-- Uploaded to: SVG Repo, www.svgrepo.com, Generator: SVG Repo Mixer Tools -->

<svg
   width="800px"
   height="800px"
   viewBox="0 0 24 24"
   fill="none"
   version="1.1"
   id="svg4"
   sodipodi:docname="close.svg"
   inkscape:version="1.1.2 (0a00cf5339, 2022-02-04)"
   xmlns:inkscape="http://www.inkscape.org/namespaces/inkscape"
   xmlns:sodipodi="http://sodipodi.sourceforge.net/DTD/sodipodi-0.dtd"
   xmlns="http://www.w3.org/2000/svg"
   xmlns:svg="http://www.w3.org/2000/svg">
  <defs
     id="defs8" />
  <sodipodi:namedview
     id="namedview6"
     pagecolor="#ffffff"
     bordercolor="#666666"
     borderopacity="1.0"
     inkscape:pageshadow="2"
     inkscape:pageopacity="0.0"
     inkscape:pagecheckerboard="0"
     showgrid="false"
     inkscape:zoom="0.5975"
     inkscape:cx="400"
     inkscape:cy="-0.83682008"
     inkscape:window-width="1366"
     inkscape:window-height="731"
     inkscape:window-x="0"
     inkscape:window-y="0"
     inkscape:window-maximized="1"
     inkscape:current-layer="svg4" />
  <path
     d="M 12,2 C 6.49,2 2,6.4900022 2,12.000005 2,17.510008 6.49,22.00001 12,22.00001 c 5.51,0 10,-4.490002 10,-10.000005 C 22,6.4900022 17.51,2 12,2 Z m 3.36,12.300006 c 0.29,0.29 0.29,0.770001 0,1.060001 -0.15,0.15 -0.34,0.22 -0.53,0.22 -0.19,0 -0.38,-0.07 -0.53,-0.22 L 12,13.060006 9.7,15.360007 c -0.15,0.15 -0.34,0.22 -0.53,0.22 -0.19,0 -0.38,-0.07 -0.53,-0.22 -0.29,-0.29 -0.29,-0.770001 0,-1.060001 l 2.3,-2.300001 -2.3,-2.3000012 c -0.29,-0.2900001 -0.29,-0.7700003 0,-1.0600005 0.29,-0.2900001 0.77,-0.2900001 1.06,0 L 12,10.940004 14.3,8.6400033 c 0.29,-0.2900001 0.77,-0.2900001 1.06,0 0.29,0.2900002 0.29,0.7700004 0,1.0600005 l -2.3,2.3000012 z"
     fill="#292d32"
     id="path2"
     style="stroke-width:1;fill:#333333;fill-opacity:1" />
</svg>
